# xmcd CD database file
#
# Track frame offsets:
#	150
#	22902
#	56065
#	86365
#	116502
#	131987
#	149337
#	167185
#	190962
#	212032
#	235150
#	252857
#	273602
#
# Disc length: 3982 seconds
#
# Revision: 2
# Processed by: cddbd v1.5.2PL0 Copyright (c) Steve Scherf et al.
# Submitted via: CDex 1.70beta2
#
DISCID=be0f8c0d
DTITLE=Oscar Peterson - Best selection 13
DYEAR=1900
DGENRE=Jazz
TTITLE0=The Shadow Of Your Smile
TTITLE1=Django
TTITLE2=Autumn Leaves
TTITLE3=Misty
TTITLE4=Easy Listening Blues
TTITLE5=Let's Fall In Love
TTITLE6=Roundalay
TTITLE7=Mack The Knife
TTITLE8=Stella By Starlight
TTITLE9=If I Were A Bell
TTITLE10=Something's Coming
TTITLE11=Tonight
TTITLE12=Somewhere
EXTD=
EXTT0=
EXTT1=
EXTT2=
EXTT3=
EXTT4=
EXTT5=
EXTT6=
EXTT7=
EXTT8=
EXTT9=
EXTT10=
EXTT11=
EXTT12=
PLAYORDER=
